# xmcd
# 
# Track frame offsets:
#     150
#     25874
#     51283
#     79542
#     105144
#     131207
#     159031
#     179547
#     203283
#     228887
#     249386
# 
# Disc length: 3578
# 
# Revision: 2
# Processed by: cddbd v1.5.2PL0 Copyright (c) Steve Scherf et al.
# Submitted via: fre:ac v1.0.31
# 
DISCID=760df80b
DTITLE=Marian McPartland - Twilight World
DYEAR=2008
DGENRE=Jazz
TTITLE0=Twilgiht World
TTITLE1=In the Days of Our Love
TTITLE2=Turn Around
TTITLE3=Close Enough for Love
TTITLE4=How Deep is the Ocean?
TTITLE5=Alfie
TTITLE6=Lonely Woman
TTITLE7=Blue in Green
TTITLE8=Afternoon in Paris
TTITLE9=Stranger in a Dream
TTITLE10=Blackberry Winter
EXTD=YEAR: 2008
EXTT0=
EXTT1=
EXTT2=
EXTT3=
EXTT4=
EXTT5=
EXTT6=
EXTT7=
EXTT8=
EXTT9=
EXTT10=
PLAYORDER=
